STARTFONT 2.1
FONT --Ohlfs-Regular-R-Normal--11-90-75-75-P-50-ISO8859-1
SIZE 9 75 75
FONTBOUNDINGBOX 7 11 0 -2
METRICSSET 2
STARTPROPERTIES 17
PIXEL_SIZE 11
RESOLUTION_X 75
RESOLUTION_Y 75
POINT_SIZE 90
FACE_NAME "Ohlfs 9"
FOUNDRY ""
FAMILY_NAME "Ohlfs"
WEIGHT_NAME "Regular"
RELATIVE_WEIGHT 50
SLANT "R"
SPACING "P"
SETWIDTH_NAME "Normal"
RELATIVE_SETWIDTH 50
ADD_STYLE_NAME ""
AVERAGE_WIDTH 50
CHARSET_REGISTRY "ISO8859"
CHARSET_ENCODING "1"
ENDPROPERTIES
CHARS 228
STARTCHAR A
ENCODING 65
SWIDTH 599 0
DWIDTH 5 0
BBX 4 7 0 0
VVECTOR 2 7
SWIDTH1 0 -747
DWIDTH1 0 -7
BITMAP 
60
90
90
90
F0
90
90
ENDCHAR
STARTCHAR AE
ENCODING 198
SWIDTH 599 0
DWIDTH 5 0
BBX 6 6 0 0
VVECTOR 3 6
SWIDTH1 0 -640
DWIDTH1 0 -6
BITMAP 
7C
30
5C
70
90
9C
ENDCHAR
STARTCHAR Aacute
ENCODING 193
SWIDTH 599 0
DWIDTH 5 0
BBX 6 9 0 0
VVECTOR 3 9
SWIDTH1 0 -960
DWIDTH1 0 -9
BITMAP 
10
20
00
70
28
48
78
48
CC
ENDCHAR
STARTCHAR Acircumflex
ENCODING 194
SWIDTH 599 0
DWIDTH 5 0
BBX 6 9 0 0
VVECTOR 3 9
SWIDTH1 0 -960
DWIDTH1 0 -9
BITMAP 
20
50
00
70
28
48
78
48
CC
ENDCHAR
STARTCHAR Adieresis
ENCODING 196
SWIDTH 599 0
DWIDTH 5 0
BBX 6 8 0 0
VVECTOR 3 8
SWIDTH1 0 -853
DWIDTH1 0 -8
BITMAP 
50
00
70
28
48
78
48
CC
ENDCHAR
STARTCHAR Agrave
ENCODING 192
SWIDTH 599 0
DWIDTH 5 0
BBX 6 9 0 0
VVECTOR 3 9
SWIDTH1 0 -960
DWIDTH1 0 -9
BITMAP 
20
10
00
70
28
48
78
48
CC
ENDCHAR
STARTCHAR Aring
ENCODING 197
SWIDTH 599 0
DWIDTH 5 0
BBX 6 9 0 0
VVECTOR 3 9
SWIDTH1 0 -960
DWIDTH1 0 -9
BITMAP 
10
28
10
70
28
48
78
48
CC
ENDCHAR
STARTCHAR Atilde
ENCODING 195
SWIDTH 599 0
DWIDTH 5 0
BBX 6 9 0 0
VVECTOR 3 9
SWIDTH1 0 -960
DWIDTH1 0 -9
BITMAP 
28
50
00
70
28
48
78
48
CC
ENDCHAR
STARTCHAR B
ENCODING 66
SWIDTH 599 0
DWIDTH 5 0
BBX 4 7 0 0
VVECTOR 2 7
SWIDTH1 0 -747
DWIDTH1 0 -7
BITMAP 
E0
90
90
E0
90
90
E0
ENDCHAR
STARTCHAR C
ENCODING 67
SWIDTH 599 0
DWIDTH 5 0
BBX 4 7 0 0
VVECTOR 2 7
SWIDTH1 0 -747
DWIDTH1 0 -7
BITMAP 
60
90
90
80
80
90
60
ENDCHAR
STARTCHAR Ccedilla
ENCODING 199
SWIDTH 599 0
DWIDTH 5 0
BBX 4 8 1 -2
VVECTOR 3 6
SWIDTH1 0 -853
DWIDTH1 0 -8
BITMAP 
60
90
80
80
90
60
20
C0
ENDCHAR
STARTCHAR D
ENCODING 68
SWIDTH 599 0
DWIDTH 5 0
BBX 4 7 0 0
VVECTOR 2 7
SWIDTH1 0 -747
DWIDTH1 0 -7
BITMAP 
E0
90
90
90
90
90
E0
ENDCHAR
STARTCHAR E
ENCODING 69
SWIDTH 599 0
DWIDTH 5 0
BBX 4 7 0 0
VVECTOR 2 7
SWIDTH1 0 -747
DWIDTH1 0 -7
BITMAP 
F0
80
80
E0
80
80
F0
ENDCHAR
STARTCHAR Eacute
ENCODING 201
SWIDTH 599 0
DWIDTH 5 0
BBX 5 9 0 0
VVECTOR 3 9
SWIDTH1 0 -960
DWIDTH1 0 -9
BITMAP 
10
20
00
F8
48
70
40
48
F8
ENDCHAR
STARTCHAR Ecircumflex
ENCODING 202
SWIDTH 599 0
DWIDTH 5 0
BBX 5 9 0 0
VVECTOR 3 9
SWIDTH1 0 -960
DWIDTH1 0 -9
BITMAP 
20
50
00
F8
48
70
40
48
F8
ENDCHAR
STARTCHAR Edieresis
ENCODING 203
SWIDTH 599 0
DWIDTH 5 0
BBX 5 8 0 0
VVECTOR 3 8
SWIDTH1 0 -853
DWIDTH1 0 -8
BITMAP 
50
00
F8
48
70
40
48
F8
ENDCHAR
STARTCHAR Egrave
ENCODING 200
SWIDTH 599 0
DWIDTH 5 0
BBX 5 9 0 0
VVECTOR 3 9
SWIDTH1 0 -960
DWIDTH1 0 -9
BITMAP 
20
10
00
F8
48
70
40
48
F8
ENDCHAR
STARTCHAR Eth
ENCODING 208
SWIDTH 599 0
DWIDTH 5 0
BBX 5 6 0 0
VVECTOR 3 6
SWIDTH1 0 -640
DWIDTH1 0 -6
BITMAP 
F0
48
E8
48
48
F0
ENDCHAR
STARTCHAR F
ENCODING 70
SWIDTH 599 0
DWIDTH 5 0
BBX 4 7 0 0
VVECTOR 2 7
SWIDTH1 0 -747
DWIDTH1 0 -7
BITMAP 
F0
80
80
E0
80
80
80
ENDCHAR
STARTCHAR G
ENCODING 71
SWIDTH 599 0
DWIDTH 5 0
BBX 4 7 0 0
VVECTOR 2 7
SWIDTH1 0 -747
DWIDTH1 0 -7
BITMAP 
60
90
80
B0
90
90
60
ENDCHAR
STARTCHAR H
ENCODING 72
SWIDTH 599 0
DWIDTH 5 0
BBX 4 7 0 0
VVECTOR 2 7
SWIDTH1 0 -747
DWIDTH1 0 -7
BITMAP 
90
90
90
F0
90
90
90
ENDCHAR
STARTCHAR I
ENCODING 73
SWIDTH 599 0
DWIDTH 5 0
BBX 3 7 0 0
VVECTOR 2 7
SWIDTH1 0 -747
DWIDTH1 0 -7
BITMAP 
E0
40
40
40
40
40
E0
ENDCHAR
STARTCHAR Iacute
ENCODING 205
SWIDTH 599 0
DWIDTH 5 0
BBX 5 9 0 0
VVECTOR 3 9
SWIDTH1 0 -960
DWIDTH1 0 -9
BITMAP 
10
20
00
F8
20
20
20
20
F8
ENDCHAR
STARTCHAR Icircumflex
ENCODING 206
SWIDTH 599 0
DWIDTH 5 0
BBX 5 9 0 0
VVECTOR 3 9
SWIDTH1 0 -960
DWIDTH1 0 -9
BITMAP 
20
50
00
F8
20
20
20
20
F8
ENDCHAR
STARTCHAR Idieresis
ENCODING 207
SWIDTH 599 0
DWIDTH 5 0
BBX 5 8 0 0
VVECTOR 3 8
SWIDTH1 0 -853
DWIDTH1 0 -8
BITMAP 
50
00
F8
20
20
20
20
F8
ENDCHAR
STARTCHAR Igrave
ENCODING 204
SWIDTH 599 0
DWIDTH 5 0
BBX 5 9 0 0
VVECTOR 3 9
SWIDTH1 0 -960
DWIDTH1 0 -9
BITMAP 
40
20
00
F8
20
20
20
20
F8
ENDCHAR
STARTCHAR J
ENCODING 74
SWIDTH 599 0
DWIDTH 5 0
BBX 4 7 0 0
VVECTOR 2 7
SWIDTH1 0 -747
DWIDTH1 0 -7
BITMAP 
10
10
10
10
90
90
60
ENDCHAR
STARTCHAR K
ENCODING 75
SWIDTH 599 0
DWIDTH 5 0
BBX 4 7 0 0
VVECTOR 2 7
SWIDTH1 0 -747
DWIDTH1 0 -7
BITMAP 
90
90
A0
C0
C0
A0
90
ENDCHAR
STARTCHAR L
ENCODING 76
SWIDTH 599 0
DWIDTH 5 0
BBX 4 7 0 0
VVECTOR 2 7
SWIDTH1 0 -747
DWIDTH1 0 -7
BITMAP 
80
80
80
80
80
80
F0
ENDCHAR
STARTCHAR Lslash
ENCODING -1
SWIDTH 599 0
DWIDTH 5 0
BBX 5 6 0 0
VVECTOR 3 6
SWIDTH1 0 -640
DWIDTH1 0 -6
BITMAP 
E0
40
60
C0
48
F8
ENDCHAR
STARTCHAR M
ENCODING 77
SWIDTH 599 0
DWIDTH 5 0
BBX 4 7 0 0
VVECTOR 2 7
SWIDTH1 0 -747
DWIDTH1 0 -7
BITMAP 
90
F0
F0
90
90
90
90
ENDCHAR
STARTCHAR N
ENCODING 78
SWIDTH 599 0
DWIDTH 5 0
BBX 4 7 0 0
VVECTOR 2 7
SWIDTH1 0 -747
DWIDTH1 0 -7
BITMAP 
90
D0
D0
B0
B0
90
90
ENDCHAR
STARTCHAR Ntilde
ENCODING 209
SWIDTH 599 0
DWIDTH 5 0
BBX 5 9 0 0
VVECTOR 3 9
SWIDTH1 0 -960
DWIDTH1 0 -9
BITMAP 
28
50
00
D8
48
68
58
48
C8
ENDCHAR
STARTCHAR O
ENCODING 79
SWIDTH 599 0
DWIDTH 5 0
BBX 4 7 0 0
VVECTOR 2 7
SWIDTH1 0 -747
DWIDTH1 0 -7
BITMAP 
60
90
90
90
90
90
60
ENDCHAR
STARTCHAR OE
ENCODING -1
SWIDTH 599 0
DWIDTH 5 0
BBX 6 6 0 0
VVECTOR 3 6
SWIDTH1 0 -640
DWIDTH1 0 -6
BITMAP 
7C
90
9C
90
94
7C
ENDCHAR
STARTCHAR Oacute
ENCODING 211
SWIDTH 599 0
DWIDTH 5 0
BBX 4 9 1 0
VVECTOR 3 9
SWIDTH1 0 -960
DWIDTH1 0 -9
BITMAP 
20
40
00
60
90
90
90
90
60
ENDCHAR
STARTCHAR Ocircumflex
ENCODING 212
SWIDTH 599 0
DWIDTH 5 0
BBX 4 9 1 0
VVECTOR 3 9
SWIDTH1 0 -960
DWIDTH1 0 -9
BITMAP 
20
50
00
60
90
90
90
90
60
ENDCHAR
STARTCHAR Odieresis
ENCODING 214
SWIDTH 599 0
DWIDTH 5 0
BBX 4 8 1 0
VVECTOR 3 8
SWIDTH1 0 -853
DWIDTH1 0 -8
BITMAP 
A0
00
60
90
90
90
90
60
ENDCHAR
STARTCHAR Ograve
ENCODING 210
SWIDTH 599 0
DWIDTH 5 0
BBX 4 9 1 0
VVECTOR 3 9
SWIDTH1 0 -960
DWIDTH1 0 -9
BITMAP 
40
20
00
60
90
90
90
90
60
ENDCHAR
STARTCHAR Oslash
ENCODING 216
SWIDTH 599 0
DWIDTH 5 0
BBX 6 6 0 0
VVECTOR 3 6
SWIDTH1 0 -640
DWIDTH1 0 -6
BITMAP 
34
48
58
68
48
B0
ENDCHAR
STARTCHAR Otilde
ENCODING 213
SWIDTH 599 0
DWIDTH 5 0
BBX 4 9 1 0
VVECTOR 3 9
SWIDTH1 0 -960
DWIDTH1 0 -9
BITMAP 
50
A0
00
60
90
90
90
90
60
ENDCHAR
STARTCHAR P
ENCODING 80
SWIDTH 599 0
DWIDTH 5 0
BBX 4 7 0 0
VVECTOR 2 7
SWIDTH1 0 -747
DWIDTH1 0 -7
BITMAP 
E0
90
90
90
E0
80
80
ENDCHAR
STARTCHAR Q
ENCODING 81
SWIDTH 599 0
DWIDTH 5 0
BBX 4 8 0 -1
VVECTOR 2 7
SWIDTH1 0 -853
DWIDTH1 0 -8
BITMAP 
60
90
90
90
90
90
60
10
ENDCHAR
STARTCHAR R
ENCODING 82
SWIDTH 599 0
DWIDTH 5 0
BBX 4 7 0 0
VVECTOR 2 7
SWIDTH1 0 -747
DWIDTH1 0 -7
BITMAP 
E0
90
90
90
E0
90
90
ENDCHAR
STARTCHAR S
ENCODING 83
SWIDTH 599 0
DWIDTH 5 0
BBX 4 7 0 0
VVECTOR 2 7
SWIDTH1 0 -747
DWIDTH1 0 -7
BITMAP 
60
90
80
60
10
90
60
ENDCHAR
STARTCHAR Scaron
ENCODING -1
SWIDTH 599 0
DWIDTH 5 0
BBX 4 9 1 0
VVECTOR 3 9
SWIDTH1 0 -960
DWIDTH1 0 -9
BITMAP 
50
20
00
70
80
60
10
90
E0
ENDCHAR
STARTCHAR T
ENCODING 84
SWIDTH 599 0
DWIDTH 5 0
BBX 5 7 0 0
VVECTOR 3 7
SWIDTH1 0 -747
DWIDTH1 0 -7
BITMAP 
F8
20
20
20
20
20
20
ENDCHAR
STARTCHAR Thorn
ENCODING 222
SWIDTH 599 0
DWIDTH 5 0
BBX 5 6 0 0
VVECTOR 3 6
SWIDTH1 0 -640
DWIDTH1 0 -6
BITMAP 
C0
70
48
70
40
E0
ENDCHAR
STARTCHAR U
ENCODING 85
SWIDTH 599 0
DWIDTH 5 0
BBX 4 7 0 0
VVECTOR 2 7
SWIDTH1 0 -747
DWIDTH1 0 -7
BITMAP 
90
90
90
90
90
90
60
ENDCHAR
STARTCHAR Uacute
ENCODING 218
SWIDTH 599 0
DWIDTH 5 0
BBX 6 9 0 0
VVECTOR 3 9
SWIDTH1 0 -960
DWIDTH1 0 -9
BITMAP 
10
20
00
CC
48
48
48
48
30
ENDCHAR
STARTCHAR Ucircumflex
ENCODING 219
SWIDTH 599 0
DWIDTH 5 0
BBX 6 9 0 0
VVECTOR 3 9
SWIDTH1 0 -960
DWIDTH1 0 -9
BITMAP 
10
28
00
CC
48
48
48
48
30
ENDCHAR
STARTCHAR Udieresis
ENCODING 220
SWIDTH 599 0
DWIDTH 5 0
BBX 6 8 0 0
VVECTOR 3 8
SWIDTH1 0 -853
DWIDTH1 0 -8
BITMAP 
50
00
CC
48
48
48
48
30
ENDCHAR
STARTCHAR Ugrave
ENCODING 217
SWIDTH 599 0
DWIDTH 5 0
BBX 6 9 0 0
VVECTOR 3 9
SWIDTH1 0 -960
DWIDTH1 0 -9
BITMAP 
20
10
00
CC
48
48
48
48
30
ENDCHAR
STARTCHAR V
ENCODING 86
SWIDTH 599 0
DWIDTH 5 0
BBX 4 7 0 0
VVECTOR 2 7
SWIDTH1 0 -747
DWIDTH1 0 -7
BITMAP 
90
90
90
A0
A0
40
40
ENDCHAR
STARTCHAR W
ENCODING 87
SWIDTH 599 0
DWIDTH 5 0
BBX 4 7 0 0
VVECTOR 2 7
SWIDTH1 0 -747
DWIDTH1 0 -7
BITMAP 
90
90
90
90
F0
F0
90
ENDCHAR
STARTCHAR X
ENCODING 88
SWIDTH 599 0
DWIDTH 5 0
BBX 4 7 0 0
VVECTOR 2 7
SWIDTH1 0 -747
DWIDTH1 0 -7
BITMAP 
90
90
60
60
90
90
90
ENDCHAR
STARTCHAR Y
ENCODING 89
SWIDTH 599 0
DWIDTH 5 0
BBX 4 7 0 0
VVECTOR 2 7
SWIDTH1 0 -747
DWIDTH1 0 -7
BITMAP 
90
90
90
60
20
20
20
ENDCHAR
STARTCHAR Yacute
ENCODING 221
SWIDTH 599 0
DWIDTH 5 0
BBX 5 9 0 0
VVECTOR 3 9
SWIDTH1 0 -960
DWIDTH1 0 -9
BITMAP 
10
20
00
D8
88
50
20
20
70
ENDCHAR
STARTCHAR Ydieresis
ENCODING -1
SWIDTH 599 0
DWIDTH 5 0
BBX 5 8 0 0
VVECTOR 3 8
SWIDTH1 0 -853
DWIDTH1 0 -8
BITMAP 
50
00
D8
88
50
20
20
70
ENDCHAR
STARTCHAR Z
ENCODING 90
SWIDTH 599 0
DWIDTH 5 0
BBX 4 7 0 0
VVECTOR 2 7
SWIDTH1 0 -747
DWIDTH1 0 -7
BITMAP 
F0
10
20
40
40
80
F0
ENDCHAR
STARTCHAR Zcaron
ENCODING -1
SWIDTH 599 0
DWIDTH 5 0
BBX 4 9 1 0
VVECTOR 3 9
SWIDTH1 0 -960
DWIDTH1 0 -9
BITMAP 
50
20
00
F0
90
20
40
90
F0
ENDCHAR
STARTCHAR a
ENCODING 97
SWIDTH 599 0
DWIDTH 5 0
BBX 4 6 0 0
VVECTOR 2 6
SWIDTH1 0 -640
DWIDTH1 0 -6
BITMAP 
60
90
70
90
90
70
ENDCHAR
STARTCHAR aacute
ENCODING 225
SWIDTH 599 0
DWIDTH 5 0
BBX 5 8 0 0
VVECTOR 3 8
SWIDTH1 0 -853
DWIDTH1 0 -8
BITMAP 
20
40
00
60
10
70
90
68
ENDCHAR
STARTCHAR acircumflex
ENCODING 226
SWIDTH 599 0
DWIDTH 5 0
BBX 5 8 0 0
VVECTOR 3 8
SWIDTH1 0 -853
DWIDTH1 0 -8
BITMAP 
20
50
00
60
10
70
90
68
ENDCHAR
STARTCHAR acute
ENCODING 180
SWIDTH 599 0
DWIDTH 5 0
BBX 2 2 2 6
VVECTOR 3 8
SWIDTH1 0 -213
DWIDTH1 0 -2
BITMAP 
40
80
ENDCHAR
STARTCHAR adieresis
ENCODING 228
SWIDTH 599 0
DWIDTH 5 0
BBX 5 7 0 0
VVECTOR 3 7
SWIDTH1 0 -747
DWIDTH1 0 -7
BITMAP 
50
00
60
10
70
90
68
ENDCHAR
STARTCHAR ae
ENCODING 230
SWIDTH 599 0
DWIDTH 5 0
BBX 6 5 0 0
VVECTOR 3 5
SWIDTH1 0 -533
DWIDTH1 0 -5
BITMAP 
6C
94
7C
90
EC
ENDCHAR
STARTCHAR agrave
ENCODING 224
SWIDTH 599 0
DWIDTH 5 0
BBX 5 8 0 0
VVECTOR 3 8
SWIDTH1 0 -853
DWIDTH1 0 -8
BITMAP 
40
20
00
60
10
70
90
68
ENDCHAR
STARTCHAR ampersand
ENCODING 38
SWIDTH 599 0
DWIDTH 5 0
BBX 5 7 0 0
VVECTOR 3 7
SWIDTH1 0 -747
DWIDTH1 0 -7
BITMAP 
30
40
50
E0
90
90
78
ENDCHAR
STARTCHAR aring
ENCODING 229
SWIDTH 599 0
DWIDTH 5 0
BBX 5 9 0 0
VVECTOR 3 9
SWIDTH1 0 -960
DWIDTH1 0 -9
BITMAP 
20
50
20
00
60
10
70
90
68
ENDCHAR
STARTCHAR asciicircum
ENCODING 94
SWIDTH 599 0
DWIDTH 5 0
BBX 5 3 0 4
VVECTOR 3 7
SWIDTH1 0 -320
DWIDTH1 0 -3
BITMAP 
20
50
88
ENDCHAR
STARTCHAR asciitilde
ENCODING 126
SWIDTH 599 0
DWIDTH 5 0
BBX 4 2 0 3
VVECTOR 2 5
SWIDTH1 0 -213
DWIDTH1 0 -2
BITMAP 
50
A0
ENDCHAR
STARTCHAR asterisk
ENCODING 42
SWIDTH 599 0
DWIDTH 5 0
BBX 5 4 0 3
VVECTOR 3 7
SWIDTH1 0 -427
DWIDTH1 0 -4
BITMAP 
20
D8
20
50
ENDCHAR
STARTCHAR at
ENCODING 64
SWIDTH 599 0
DWIDTH 5 0
BBX 5 7 0 0
VVECTOR 3 7
SWIDTH1 0 -747
DWIDTH1 0 -7
BITMAP 
30
48
98
A8
B8
80
78
ENDCHAR
STARTCHAR atilde
ENCODING 227
SWIDTH 599 0
DWIDTH 5 0
BBX 5 8 0 0
VVECTOR 3 8
SWIDTH1 0 -853
DWIDTH1 0 -8
BITMAP 
50
A0
00
60
10
70
90
68
ENDCHAR
STARTCHAR b
ENCODING 98
SWIDTH 599 0
DWIDTH 5 0
BBX 4 7 0 0
VVECTOR 2 7
SWIDTH1 0 -747
DWIDTH1 0 -7
BITMAP 
80
E0
90
90
90
90
E0
ENDCHAR
STARTCHAR backslash
ENCODING 92
SWIDTH 599 0
DWIDTH 5 0
BBX 4 8 0 -1
VVECTOR 2 7
SWIDTH1 0 -853
DWIDTH1 0 -8
BITMAP 
80
80
40
40
20
20
10
10
ENDCHAR
STARTCHAR bar
ENCODING 124
SWIDTH 599 0
DWIDTH 5 0
BBX 1 10 2 -2
VVECTOR 3 8
SWIDTH1 0 -1067
DWIDTH1 0 -10
BITMAP 
80
80
80
80
80
80
80
80
80
80
ENDCHAR
STARTCHAR braceleft
ENCODING 123
SWIDTH 599 0
DWIDTH 5 0
BBX 3 10 1 -2
VVECTOR 3 8
SWIDTH1 0 -1067
DWIDTH1 0 -10
BITMAP 
20
40
40
40
80
40
40
40
40
20
ENDCHAR
STARTCHAR braceright
ENCODING 125
SWIDTH 599 0
DWIDTH 5 0
BBX 3 10 1 -2
VVECTOR 3 8
SWIDTH1 0 -1067
DWIDTH1 0 -10
BITMAP 
80
40
40
40
20
40
40
40
40
80
ENDCHAR
STARTCHAR bracketleft
ENCODING 91
SWIDTH 599 0
DWIDTH 5 0
BBX 2 10 1 -2
VVECTOR 2 8
SWIDTH1 0 -1067
DWIDTH1 0 -10
BITMAP 
C0
80
80
80
80
80
80
80
80
C0
ENDCHAR
STARTCHAR bracketright
ENCODING 93
SWIDTH 599 0
DWIDTH 5 0
BBX 2 10 1 -2
VVECTOR 2 8
SWIDTH1 0 -1067
DWIDTH1 0 -10
BITMAP 
C0
40
40
40
40
40
40
40
40
C0
ENDCHAR
STARTCHAR breve
ENCODING -1
SWIDTH 599 0
DWIDTH 5 0
BBX 4 2 1 6
VVECTOR 3 8
SWIDTH1 0 -213
DWIDTH1 0 -2
BITMAP 
90
60
ENDCHAR
STARTCHAR brokenbar
ENCODING 166
SWIDTH 599 0
DWIDTH 5 0
BBX 1 9 2 -2
VVECTOR 3 7
SWIDTH1 0 -960
DWIDTH1 0 -9
BITMAP 
80
80
80
00
00
80
80
80
80
ENDCHAR
STARTCHAR bullet
ENCODING -1
SWIDTH 599 0
DWIDTH 5 0
BBX 2 2 2 2
VVECTOR 3 4
SWIDTH1 0 -213
DWIDTH1 0 -2
BITMAP 
C0
C0
ENDCHAR
STARTCHAR c
ENCODING 99
SWIDTH 599 0
DWIDTH 5 0
BBX 4 6 0 0
VVECTOR 2 6
SWIDTH1 0 -640
DWIDTH1 0 -6
BITMAP 
60
90
80
80
90
60
ENDCHAR
STARTCHAR caron
ENCODING -1
SWIDTH 599 0
DWIDTH 5 0
BBX 3 2 1 6
VVECTOR 3 8
SWIDTH1 0 -213
DWIDTH1 0 -2
BITMAP 
A0
40
ENDCHAR
STARTCHAR ccedilla
ENCODING 231
SWIDTH 599 0
DWIDTH 5 0
BBX 4 7 1 -2
VVECTOR 3 5
SWIDTH1 0 -747
DWIDTH1 0 -7
BITMAP 
60
90
80
90
60
20
C0
ENDCHAR
STARTCHAR cedilla
ENCODING 184
SWIDTH 599 0
DWIDTH 5 0
BBX 3 3 1 -2
VVECTOR 3 1
SWIDTH1 0 -320
DWIDTH1 0 -3
BITMAP 
40
20
C0
ENDCHAR
STARTCHAR cent
ENCODING 162
SWIDTH 599 0
DWIDTH 5 0
BBX 4 8 1 -1
VVECTOR 3 7
SWIDTH1 0 -853
DWIDTH1 0 -8
BITMAP 
20
20
70
80
80
70
20
20
ENDCHAR
STARTCHAR circumflex
ENCODING -1
SWIDTH 599 0
DWIDTH 5 0
BBX 3 2 1 6
VVECTOR 3 8
SWIDTH1 0 -213
DWIDTH1 0 -2
BITMAP 
40
A0
ENDCHAR
STARTCHAR colon
ENCODING 58
SWIDTH 599 0
DWIDTH 5 0
BBX 1 4 2 0
VVECTOR 3 4
SWIDTH1 0 -427
DWIDTH1 0 -4
BITMAP 
80
00
00
80
ENDCHAR
STARTCHAR comma
ENCODING 44
SWIDTH 599 0
DWIDTH 5 0
BBX 2 3 1 -2
VVECTOR 2 1
SWIDTH1 0 -320
DWIDTH1 0 -3
BITMAP 
40
40
80
ENDCHAR
STARTCHAR copyright
ENCODING 169
SWIDTH 599 0
DWIDTH 5 0
BBX 6 7 0 0
VVECTOR 3 7
SWIDTH1 0 -747
DWIDTH1 0 -7
BITMAP 
30
48
B4
A4
B4
48
30
ENDCHAR
STARTCHAR currency
ENCODING 164
SWIDTH 599 0
DWIDTH 5 0
BBX 5 5 0 1
VVECTOR 3 6
SWIDTH1 0 -533
DWIDTH1 0 -5
BITMAP 
88
70
50
70
88
ENDCHAR
STARTCHAR d
ENCODING 100
SWIDTH 599 0
DWIDTH 5 0
BBX 4 7 0 0
VVECTOR 2 7
SWIDTH1 0 -747
DWIDTH1 0 -7
BITMAP 
10
70
90
90
90
90
70
ENDCHAR
STARTCHAR dagger
ENCODING -1
SWIDTH 599 0
DWIDTH 5 0
BBX 3 7 1 0
VVECTOR 3 7
SWIDTH1 0 -747
DWIDTH1 0 -7
BITMAP 
40
E0
40
40
40
40
40
ENDCHAR
STARTCHAR daggerdbl
ENCODING -1
SWIDTH 599 0
DWIDTH 5 0
BBX 3 7 1 0
VVECTOR 3 7
SWIDTH1 0 -747
DWIDTH1 0 -7
BITMAP 
40
E0
40
40
40
E0
40
ENDCHAR
STARTCHAR degree
ENCODING 176
SWIDTH 599 0
DWIDTH 5 0
BBX 4 3 1 4
VVECTOR 3 7
SWIDTH1 0 -320
DWIDTH1 0 -3
BITMAP 
60
90
60
ENDCHAR
STARTCHAR dieresis
ENCODING 168
SWIDTH 599 0
DWIDTH 5 0
BBX 3 1 1 6
VVECTOR 3 7
SWIDTH1 0 -107
DWIDTH1 0 -1
BITMAP 
A0
ENDCHAR
STARTCHAR divide
ENCODING 247
SWIDTH 599 0
DWIDTH 5 0
BBX 5 5 0 1
VVECTOR 3 6
SWIDTH1 0 -533
DWIDTH1 0 -5
BITMAP 
20
00
F8
00
20
ENDCHAR
STARTCHAR dollar
ENCODING 36
SWIDTH 599 0
DWIDTH 5 0
BBX 4 8 0 -1
VVECTOR 2 7
SWIDTH1 0 -853
DWIDTH1 0 -8
BITMAP 
20
60
90
40
20
90
60
20
ENDCHAR
STARTCHAR dotaccent
ENCODING -1
SWIDTH 599 0
DWIDTH 5 0
BBX 1 1 2 6
VVECTOR 3 7
SWIDTH1 0 -107
DWIDTH1 0 -1
BITMAP 
80
ENDCHAR
STARTCHAR dotlessi
ENCODING -1
SWIDTH 599 0
DWIDTH 5 0
BBX 5 5 1 0
VVECTOR 4 5
SWIDTH1 0 -533
DWIDTH1 0 -5
BITMAP 
60
20
20
20
F8
ENDCHAR
STARTCHAR e
ENCODING 101
SWIDTH 599 0
DWIDTH 5 0
BBX 4 6 0 0
VVECTOR 2 6
SWIDTH1 0 -640
DWIDTH1 0 -6
BITMAP 
60
90
F0
80
90
60
ENDCHAR
STARTCHAR eacute
ENCODING 233
SWIDTH 599 0
DWIDTH 5 0
BBX 4 8 1 0
VVECTOR 3 8
SWIDTH1 0 -853
DWIDTH1 0 -8
BITMAP 
20
40
00
60
90
F0
80
70
ENDCHAR
STARTCHAR ecircumflex
ENCODING 234
SWIDTH 599 0
DWIDTH 5 0
BBX 4 8 1 0
VVECTOR 3 8
SWIDTH1 0 -853
DWIDTH1 0 -8
BITMAP 
40
A0
00
60
90
F0
80
70
ENDCHAR
STARTCHAR edieresis
ENCODING 235
SWIDTH 599 0
DWIDTH 5 0
BBX 4 7 1 0
VVECTOR 3 7
SWIDTH1 0 -747
DWIDTH1 0 -7
BITMAP 
A0
00
60
90
F0
80
70
ENDCHAR
STARTCHAR egrave
ENCODING 232
SWIDTH 599 0
DWIDTH 5 0
BBX 4 8 1 0
VVECTOR 3 8
SWIDTH1 0 -853
DWIDTH1 0 -8
BITMAP 
40
20
00
60
90
F0
80
70
ENDCHAR
STARTCHAR eight
ENCODING 56
SWIDTH 599 0
DWIDTH 5 0
BBX 4 7 0 0
VVECTOR 2 7
SWIDTH1 0 -747
DWIDTH1 0 -7
BITMAP 
60
90
90
60
90
90
60
ENDCHAR
STARTCHAR ellipsis
ENCODING -1
SWIDTH 599 0
DWIDTH 5 0
BBX 5 1 1 0
VVECTOR 4 1
SWIDTH1 0 -107
DWIDTH1 0 -1
BITMAP 
A8
ENDCHAR
STARTCHAR emdash
ENCODING -1
SWIDTH 599 0
DWIDTH 5 0
BBX 6 1 0 3
VVECTOR 3 4
SWIDTH1 0 -107
DWIDTH1 0 -1
BITMAP 
FC
ENDCHAR
STARTCHAR endash
ENCODING -1
SWIDTH 599 0
DWIDTH 5 0
BBX 4 1 1 3
VVECTOR 3 4
SWIDTH1 0 -107
DWIDTH1 0 -1
BITMAP 
F0
ENDCHAR
STARTCHAR equal
ENCODING 61
SWIDTH 599 0
DWIDTH 5 0
BBX 4 3 0 2
VVECTOR 2 5
SWIDTH1 0 -320
DWIDTH1 0 -3
BITMAP 
F0
00
F0
ENDCHAR
STARTCHAR eth
ENCODING 240
SWIDTH 599 0
DWIDTH 5 0
BBX 5 8 0 0
VVECTOR 3 8
SWIDTH1 0 -853
DWIDTH1 0 -8
BITMAP 
68
B0
50
38
48
48
48
30
ENDCHAR
STARTCHAR exclam
ENCODING 33
SWIDTH 599 0
DWIDTH 5 0
BBX 1 7 2 0
VVECTOR 3 7
SWIDTH1 0 -747
DWIDTH1 0 -7
BITMAP 
80
80
80
80
80
00
80
ENDCHAR
STARTCHAR exclamdown
ENCODING 161
SWIDTH 599 0
DWIDTH 5 0
BBX 1 7 2 -2
VVECTOR 3 5
SWIDTH1 0 -747
DWIDTH1 0 -7
BITMAP 
80
00
80
80
80
80
80
ENDCHAR
STARTCHAR f
ENCODING 102
SWIDTH 599 0
DWIDTH 5 0
BBX 4 8 0 0
VVECTOR 2 8
SWIDTH1 0 -853
DWIDTH1 0 -8
BITMAP 
30
40
E0
40
40
40
40
40
ENDCHAR
STARTCHAR fi
ENCODING -1
SWIDTH 599 0
DWIDTH 5 0
BBX 5 7 0 0
VVECTOR 3 7
SWIDTH1 0 -747
DWIDTH1 0 -7
BITMAP 
28
40
F8
48
48
48
F8
ENDCHAR
STARTCHAR five
ENCODING 53
SWIDTH 599 0
DWIDTH 5 0
BBX 4 7 0 0
VVECTOR 2 7
SWIDTH1 0 -747
DWIDTH1 0 -7
BITMAP 
F0
80
E0
10
10
90
60
ENDCHAR
STARTCHAR fl
ENCODING -1
SWIDTH 599 0
DWIDTH 5 0
BBX 4 7 0 0
VVECTOR 2 7
SWIDTH1 0 -747
DWIDTH1 0 -7
BITMAP 
30
50
F0
50
50
50
50
ENDCHAR
STARTCHAR florin
ENCODING -1
SWIDTH 599 0
DWIDTH 5 0
BBX 5 8 0 -1
VVECTOR 3 7
SWIDTH1 0 -853
DWIDTH1 0 -8
BITMAP 
18
20
70
20
20
20
20
C0
ENDCHAR
STARTCHAR four
ENCODING 52
SWIDTH 599 0
DWIDTH 5 0
BBX 5 7 0 0
VVECTOR 3 7
SWIDTH1 0 -747
DWIDTH1 0 -7
BITMAP 
10
30
50
90
F8
10
10
ENDCHAR
STARTCHAR fraction
ENCODING -1
SWIDTH 599 0
DWIDTH 5 0
BBX 5 4 0 1
VVECTOR 3 5
SWIDTH1 0 -427
DWIDTH1 0 -4
BITMAP 
18
30
60
C0
ENDCHAR
STARTCHAR g
ENCODING 103
SWIDTH 599 0
DWIDTH 5 0
BBX 4 8 0 -2
VVECTOR 2 6
SWIDTH1 0 -853
DWIDTH1 0 -8
BITMAP 
70
90
90
90
90
70
10
E0
ENDCHAR
STARTCHAR germandbls
ENCODING 223
SWIDTH 599 0
DWIDTH 5 0
BBX 6 7 0 0
VVECTOR 3 7
SWIDTH1 0 -747
DWIDTH1 0 -7
BITMAP 
30
48
48
58
44
44
D8
ENDCHAR
STARTCHAR grave
ENCODING 96
SWIDTH 599 0
DWIDTH 5 0
BBX 2 2 1 6
VVECTOR 2 8
SWIDTH1 0 -213
DWIDTH1 0 -2
BITMAP 
80
40
ENDCHAR
STARTCHAR greater
ENCODING 62
SWIDTH 599 0
DWIDTH 5 0
BBX 3 5 1 1
VVECTOR 3 6
SWIDTH1 0 -533
DWIDTH1 0 -5
BITMAP 
80
40
20
40
80
ENDCHAR
STARTCHAR guillemotleft
ENCODING 171
SWIDTH 599 0
DWIDTH 5 0
BBX 5 3 0 1
VVECTOR 3 4
SWIDTH1 0 -320
DWIDTH1 0 -3
BITMAP 
48
90
48
ENDCHAR
STARTCHAR guillemotright
ENCODING 187
SWIDTH 599 0
DWIDTH 5 0
BBX 5 3 1 1
VVECTOR 4 4
SWIDTH1 0 -320
DWIDTH1 0 -3
BITMAP 
90
48
90
ENDCHAR
STARTCHAR guilsinglleft
ENCODING -1
SWIDTH 599 0
DWIDTH 5 0
BBX 2 3 1 1
VVECTOR 2 4
SWIDTH1 0 -320
DWIDTH1 0 -3
BITMAP 
40
80
40
ENDCHAR
STARTCHAR guilsinglright
ENCODING -1
SWIDTH 599 0
DWIDTH 5 0
BBX 2 3 2 1
VVECTOR 3 4
SWIDTH1 0 -320
DWIDTH1 0 -3
BITMAP 
80
40
80
ENDCHAR
STARTCHAR h
ENCODING 104
SWIDTH 599 0
DWIDTH 5 0
BBX 4 7 0 0
VVECTOR 2 7
SWIDTH1 0 -747
DWIDTH1 0 -7
BITMAP 
80
E0
90
90
90
90
90
ENDCHAR
STARTCHAR hungarumlaut
ENCODING -1
SWIDTH 599 0
DWIDTH 5 0
BBX 5 2 0 6
VVECTOR 3 8
SWIDTH1 0 -213
DWIDTH1 0 -2
BITMAP 
48
90
ENDCHAR
STARTCHAR hyphen
ENCODING 45
SWIDTH 599 0
DWIDTH 5 0
BBX 4 1 0 3
VVECTOR 2 4
SWIDTH1 0 -107
DWIDTH1 0 -1
BITMAP 
F0
ENDCHAR
STARTCHAR i
ENCODING 105
SWIDTH 599 0
DWIDTH 5 0
BBX 3 8 1 0
VVECTOR 3 8
SWIDTH1 0 -853
DWIDTH1 0 -8
BITMAP 
40
00
C0
40
40
40
40
E0
ENDCHAR
STARTCHAR iacute
ENCODING 237
SWIDTH 599 0
DWIDTH 5 0
BBX 5 8 0 0
VVECTOR 3 8
SWIDTH1 0 -853
DWIDTH1 0 -8
BITMAP 
20
40
00
60
20
20
20
F8
ENDCHAR
STARTCHAR icircumflex
ENCODING 238
SWIDTH 599 0
DWIDTH 5 0
BBX 5 8 0 0
VVECTOR 3 8
SWIDTH1 0 -853
DWIDTH1 0 -8
BITMAP 
20
50
00
60
20
20
20
F8
ENDCHAR
STARTCHAR idieresis
ENCODING 239
SWIDTH 599 0
DWIDTH 5 0
BBX 5 7 0 0
VVECTOR 3 7
SWIDTH1 0 -747
DWIDTH1 0 -7
BITMAP 
50
00
60
20
20
20
F8
ENDCHAR
STARTCHAR igrave
ENCODING 236
SWIDTH 599 0
DWIDTH 5 0
BBX 5 8 0 0
VVECTOR 3 8
SWIDTH1 0 -853
DWIDTH1 0 -8
BITMAP 
40
20
00
60
20
20
20
F8
ENDCHAR
STARTCHAR j
ENCODING 106
SWIDTH 599 0
DWIDTH 5 0
BBX 3 10 0 -2
VVECTOR 2 8
SWIDTH1 0 -1067
DWIDTH1 0 -10
BITMAP 
20
00
60
20
20
20
20
20
20
C0
ENDCHAR
STARTCHAR k
ENCODING 107
SWIDTH 599 0
DWIDTH 5 0
BBX 4 7 0 0
VVECTOR 2 7
SWIDTH1 0 -747
DWIDTH1 0 -7
BITMAP 
80
90
A0
C0
C0
A0
90
ENDCHAR
STARTCHAR l
ENCODING 108
SWIDTH 599 0
DWIDTH 5 0
BBX 3 7 1 0
VVECTOR 3 7
SWIDTH1 0 -747
DWIDTH1 0 -7
BITMAP 
C0
40
40
40
40
40
E0
ENDCHAR
STARTCHAR less
ENCODING 60
SWIDTH 599 0
DWIDTH 5 0
BBX 3 5 1 1
VVECTOR 3 6
SWIDTH1 0 -533
DWIDTH1 0 -5
BITMAP 
20
40
80
40
20
ENDCHAR
STARTCHAR logicalnot
ENCODING 172
SWIDTH 599 0
DWIDTH 5 0
BBX 4 3 0 2
VVECTOR 2 5
SWIDTH1 0 -320
DWIDTH1 0 -3
BITMAP 
F0
10
10
ENDCHAR
STARTCHAR lslash
ENCODING -1
SWIDTH 599 0
DWIDTH 5 0
BBX 5 7 1 0
VVECTOR 4 7
SWIDTH1 0 -747
DWIDTH1 0 -7
BITMAP 
60
20
30
60
20
20
F8
ENDCHAR
STARTCHAR m
ENCODING 109
SWIDTH 599 0
DWIDTH 5 0
BBX 4 6 0 0
VVECTOR 2 6
SWIDTH1 0 -640
DWIDTH1 0 -6
BITMAP 
90
F0
F0
90
90
90
ENDCHAR
STARTCHAR macron
ENCODING 175
SWIDTH 599 0
DWIDTH 5 0
BBX 4 1 1 6
VVECTOR 3 7
SWIDTH1 0 -107
DWIDTH1 0 -1
BITMAP 
F0
ENDCHAR
STARTCHAR minus
ENCODING -1
SWIDTH 599 0
DWIDTH 5 0
BBX 4 1 0 3
VVECTOR 2 4
SWIDTH1 0 -107
DWIDTH1 0 -1
BITMAP 
F0
ENDCHAR
STARTCHAR mu
ENCODING 181
SWIDTH 599 0
DWIDTH 5 0
BBX 6 7 0 -2
VVECTOR 3 5
SWIDTH1 0 -747
DWIDTH1 0 -7
BITMAP 
D8
48
48
48
74
40
40
ENDCHAR
STARTCHAR multiply
ENCODING 215
SWIDTH 599 0
DWIDTH 5 0
BBX 5 5 0 1
VVECTOR 3 6
SWIDTH1 0 -533
DWIDTH1 0 -5
BITMAP 
88
50
20
50
88
ENDCHAR
STARTCHAR n
ENCODING 110
SWIDTH 599 0
DWIDTH 5 0
BBX 4 6 0 0
VVECTOR 2 6
SWIDTH1 0 -640
DWIDTH1 0 -6
BITMAP 
A0
D0
90
90
90
90
ENDCHAR
STARTCHAR nine
ENCODING 57
SWIDTH 599 0
DWIDTH 5 0
BBX 4 7 0 0
VVECTOR 2 7
SWIDTH1 0 -747
DWIDTH1 0 -7
BITMAP 
60
90
90
70
10
90
60
ENDCHAR
STARTCHAR ntilde
ENCODING 241
SWIDTH 599 0
DWIDTH 5 0
BBX 6 8 0 0
VVECTOR 3 8
SWIDTH1 0 -853
DWIDTH1 0 -8
BITMAP 
28
50
00
B0
48
48
48
EC
ENDCHAR
STARTCHAR numbersign
ENCODING 35
SWIDTH 599 0
DWIDTH 5 0
BBX 4 7 0 0
VVECTOR 2 7
SWIDTH1 0 -747
DWIDTH1 0 -7
BITMAP 
50
50
F0
50
F0
A0
A0
ENDCHAR
STARTCHAR o
ENCODING 111
SWIDTH 599 0
DWIDTH 5 0
BBX 4 6 0 0
VVECTOR 2 6
SWIDTH1 0 -640
DWIDTH1 0 -6
BITMAP 
60
90
90
90
90
60
ENDCHAR
STARTCHAR oacute
ENCODING 243
SWIDTH 599 0
DWIDTH 5 0
BBX 4 8 1 0
VVECTOR 3 8
SWIDTH1 0 -853
DWIDTH1 0 -8
BITMAP 
20
40
00
60
90
90
90
60
ENDCHAR
STARTCHAR ocircumflex
ENCODING 244
SWIDTH 599 0
DWIDTH 5 0
BBX 4 8 1 0
VVECTOR 3 8
SWIDTH1 0 -853
DWIDTH1 0 -8
BITMAP 
40
A0
00
60
90
90
90
60
ENDCHAR
STARTCHAR odieresis
ENCODING 246
SWIDTH 599 0
DWIDTH 5 0
BBX 4 7 1 0
VVECTOR 3 7
SWIDTH1 0 -747
DWIDTH1 0 -7
BITMAP 
A0
00
60
90
90
90
60
ENDCHAR
STARTCHAR oe
ENCODING -1
SWIDTH 599 0
DWIDTH 5 0
BBX 5 5 0 0
VVECTOR 3 5
SWIDTH1 0 -533
DWIDTH1 0 -5
BITMAP 
50
A8
B8
A0
58
ENDCHAR
STARTCHAR ogonek
ENCODING -1
SWIDTH 599 0
DWIDTH 5 0
BBX 3 3 1 -2
VVECTOR 3 1
SWIDTH1 0 -320
DWIDTH1 0 -3
BITMAP 
40
80
60
ENDCHAR
STARTCHAR ograve
ENCODING 242
SWIDTH 599 0
DWIDTH 5 0
BBX 4 8 1 0
VVECTOR 3 8
SWIDTH1 0 -853
DWIDTH1 0 -8
BITMAP 
40
20
00
60
90
90
90
60
ENDCHAR
STARTCHAR one
ENCODING 49
SWIDTH 599 0
DWIDTH 5 0
BBX 3 7 1 0
VVECTOR 3 7
SWIDTH1 0 -747
DWIDTH1 0 -7
BITMAP 
40
C0
40
40
40
40
E0
ENDCHAR
STARTCHAR onehalf
ENCODING 189
SWIDTH 599 0
DWIDTH 5 0
BBX 7 7 0 0
VVECTOR 4 7
SWIDTH1 0 -747
DWIDTH1 0 -7
BITMAP 
C0
44
48
F6
2A
44
0E
ENDCHAR
STARTCHAR onequarter
ENCODING 188
SWIDTH 599 0
DWIDTH 5 0
BBX 7 7 0 0
VVECTOR 4 7
SWIDTH1 0 -747
DWIDTH1 0 -7
BITMAP 
C0
44
48
F4
2C
5E
04
ENDCHAR
STARTCHAR onesuperior
ENCODING -1
SWIDTH 599 0
DWIDTH 5 0
BBX 3 4 1 3
VVECTOR 3 7
SWIDTH1 0 -427
DWIDTH1 0 -4
BITMAP 
C0
40
40
E0
ENDCHAR
STARTCHAR ordfeminine
ENCODING 170
SWIDTH 599 0
DWIDTH 5 0
BBX 4 5 1 1
VVECTOR 3 6
SWIDTH1 0 -533
DWIDTH1 0 -5
BITMAP 
E0
10
D0
00
F0
ENDCHAR
STARTCHAR ordmasculine
ENCODING 186
SWIDTH 599 0
DWIDTH 5 0
BBX 4 5 1 1
VVECTOR 3 6
SWIDTH1 0 -533
DWIDTH1 0 -5
BITMAP 
60
90
60
00
F0
ENDCHAR
STARTCHAR oslash
ENCODING 248
SWIDTH 599 0
DWIDTH 5 0
BBX 6 5 0 0
VVECTOR 3 5
SWIDTH1 0 -533
DWIDTH1 0 -5
BITMAP 
34
48
48
48
B0
ENDCHAR
STARTCHAR otilde
ENCODING 245
SWIDTH 599 0
DWIDTH 5 0
BBX 4 8 1 0
VVECTOR 3 8
SWIDTH1 0 -853
DWIDTH1 0 -8
BITMAP 
50
A0
00
60
90
90
90
60
ENDCHAR
STARTCHAR p
ENCODING 112
SWIDTH 599 0
DWIDTH 5 0
BBX 4 8 0 -2
VVECTOR 2 6
SWIDTH1 0 -853
DWIDTH1 0 -8
BITMAP 
E0
90
90
90
90
E0
80
80
ENDCHAR
STARTCHAR paragraph
ENCODING 182
SWIDTH 599 0
DWIDTH 5 0
BBX 6 7 0 0
VVECTOR 3 7
SWIDTH1 0 -747
DWIDTH1 0 -7
BITMAP 
7C
A8
A8
68
28
28
6C
ENDCHAR
STARTCHAR parenleft
ENCODING 40
SWIDTH 599 0
DWIDTH 5 0
BBX 3 10 2 -2
VVECTOR 4 8
SWIDTH1 0 -1067
DWIDTH1 0 -10
BITMAP 
20
40
40
80
80
80
80
40
40
20
ENDCHAR
STARTCHAR parenright
ENCODING 41
SWIDTH 599 0
DWIDTH 5 0
BBX 3 10 1 -2
VVECTOR 3 8
SWIDTH1 0 -1067
DWIDTH1 0 -10
BITMAP 
80
40
40
20
20
20
20
40
40
80
ENDCHAR
STARTCHAR percent
ENCODING 37
SWIDTH 599 0
DWIDTH 5 0
BBX 4 7 0 0
VVECTOR 2 7
SWIDTH1 0 -747
DWIDTH1 0 -7
BITMAP 
D0
D0
20
60
40
B0
B0
ENDCHAR
STARTCHAR period
ENCODING 46
SWIDTH 599 0
DWIDTH 5 0
BBX 1 1 2 0
VVECTOR 3 1
SWIDTH1 0 -107
DWIDTH1 0 -1
BITMAP 
80
ENDCHAR
STARTCHAR periodcentered
ENCODING 183
SWIDTH 599 0
DWIDTH 5 0
BBX 1 1 2 3
VVECTOR 3 4
SWIDTH1 0 -107
DWIDTH1 0 -1
BITMAP 
80
ENDCHAR
STARTCHAR perthousand
ENCODING -1
SWIDTH 599 0
DWIDTH 5 0
BBX 5 8 0 0
VVECTOR 3 8
SWIDTH1 0 -853
DWIDTH1 0 -8
BITMAP 
60
A0
C8
30
C0
78
A8
D8
ENDCHAR
STARTCHAR plus
ENCODING 43
SWIDTH 599 0
DWIDTH 5 0
BBX 5 5 0 1
VVECTOR 3 6
SWIDTH1 0 -533
DWIDTH1 0 -5
BITMAP 
20
20
F8
20
20
ENDCHAR
STARTCHAR plusminus
ENCODING 177
SWIDTH 599 0
DWIDTH 5 0
BBX 5 5 0 1
VVECTOR 3 6
SWIDTH1 0 -533
DWIDTH1 0 -5
BITMAP 
20
F8
20
00
F8
ENDCHAR
STARTCHAR q
ENCODING 113
SWIDTH 599 0
DWIDTH 5 0
BBX 4 8 0 -2
VVECTOR 2 6
SWIDTH1 0 -853
DWIDTH1 0 -8
BITMAP 
70
90
90
90
90
70
10
10
ENDCHAR
STARTCHAR question
ENCODING 63
SWIDTH 599 0
DWIDTH 5 0
BBX 4 6 0 0
VVECTOR 2 6
SWIDTH1 0 -640
DWIDTH1 0 -6
BITMAP 
60
90
20
40
00
40
ENDCHAR
STARTCHAR questiondown
ENCODING 191
SWIDTH 599 0
DWIDTH 5 0
BBX 4 6 0 -2
VVECTOR 2 4
SWIDTH1 0 -640
DWIDTH1 0 -6
BITMAP 
20
00
20
40
90
60
ENDCHAR
STARTCHAR quotedbl
ENCODING 34
SWIDTH 599 0
DWIDTH 5 0
BBX 3 3 1 4
VVECTOR 3 7
SWIDTH1 0 -320
DWIDTH1 0 -3
BITMAP 
A0
A0
A0
ENDCHAR
STARTCHAR quotedblbase
ENCODING -1
SWIDTH 599 0
DWIDTH 5 0
BBX 4 3 1 -2
VVECTOR 3 1
SWIDTH1 0 -320
DWIDTH1 0 -3
BITMAP 
50
50
A0
ENDCHAR
STARTCHAR quotedblleft
ENCODING -1
SWIDTH 599 0
DWIDTH 5 0
BBX 4 3 1 4
VVECTOR 3 7
SWIDTH1 0 -320
DWIDTH1 0 -3
BITMAP 
A0
A0
50
ENDCHAR
STARTCHAR quotedblright
ENCODING -1
SWIDTH 599 0
DWIDTH 5 0
BBX 4 3 1 4
VVECTOR 3 7
SWIDTH1 0 -320
DWIDTH1 0 -3
BITMAP 
50
50
A0
ENDCHAR
STARTCHAR quoteleft
ENCODING -1
SWIDTH 599 0
DWIDTH 5 0
BBX 2 3 1 4
VVECTOR 2 7
SWIDTH1 0 -320
DWIDTH1 0 -3
BITMAP 
80
80
40
ENDCHAR
STARTCHAR quoteright
ENCODING -1
SWIDTH 599 0
DWIDTH 5 0
BBX 2 3 1 4
VVECTOR 2 7
SWIDTH1 0 -320
DWIDTH1 0 -3
BITMAP 
40
40
80
ENDCHAR
STARTCHAR quotesinglbase
ENCODING -1
SWIDTH 599 0
DWIDTH 5 0
BBX 2 3 1 -2
VVECTOR 2 1
SWIDTH1 0 -320
DWIDTH1 0 -3
BITMAP 
40
40
80
ENDCHAR
STARTCHAR quotesingle
ENCODING 39
SWIDTH 599 0
DWIDTH 5 0
BBX 1 3 2 4
VVECTOR 3 7
SWIDTH1 0 -320
DWIDTH1 0 -3
BITMAP 
80
80
80
ENDCHAR
STARTCHAR r
ENCODING 114
SWIDTH 599 0
DWIDTH 5 0
BBX 4 6 0 0
VVECTOR 2 6
SWIDTH1 0 -640
DWIDTH1 0 -6
BITMAP 
B0
40
40
40
40
E0
ENDCHAR
STARTCHAR registered
ENCODING 174
SWIDTH 599 0
DWIDTH 5 0
BBX 5 6 0 0
VVECTOR 3 6
SWIDTH1 0 -640
DWIDTH1 0 -6
BITMAP 
70
88
A8
A8
88
70
ENDCHAR
STARTCHAR ring
ENCODING -1
SWIDTH 599 0
DWIDTH 5 0
BBX 3 3 1 5
VVECTOR 3 8
SWIDTH1 0 -320
DWIDTH1 0 -3
BITMAP 
40
A0
40
ENDCHAR
STARTCHAR s
ENCODING 115
SWIDTH 599 0
DWIDTH 5 0
BBX 4 6 0 0
VVECTOR 2 6
SWIDTH1 0 -640
DWIDTH1 0 -6
BITMAP 
60
90
40
20
90
60
ENDCHAR
STARTCHAR scaron
ENCODING -1
SWIDTH 599 0
DWIDTH 5 0
BBX 4 8 1 0
VVECTOR 3 8
SWIDTH1 0 -853
DWIDTH1 0 -8
BITMAP 
50
20
00
70
80
60
10
E0
ENDCHAR
STARTCHAR section
ENCODING 167
SWIDTH 599 0
DWIDTH 5 0
BBX 4 7 1 0
VVECTOR 3 7
SWIDTH1 0 -747
DWIDTH1 0 -7
BITMAP 
70
80
60
90
60
10
E0
ENDCHAR
STARTCHAR semicolon
ENCODING 59
SWIDTH 599 0
DWIDTH 5 0
BBX 2 6 1 -2
VVECTOR 2 4
SWIDTH1 0 -640
DWIDTH1 0 -6
BITMAP 
40
00
00
40
40
80
ENDCHAR
STARTCHAR seven
ENCODING 55
SWIDTH 599 0
DWIDTH 5 0
BBX 4 7 0 0
VVECTOR 2 7
SWIDTH1 0 -747
DWIDTH1 0 -7
BITMAP 
F0
90
10
20
20
40
40
ENDCHAR
STARTCHAR six
ENCODING 54
SWIDTH 599 0
DWIDTH 5 0
BBX 4 7 0 0
VVECTOR 2 7
SWIDTH1 0 -747
DWIDTH1 0 -7
BITMAP 
60
90
80
E0
90
90
60
ENDCHAR
STARTCHAR slash
ENCODING 47
SWIDTH 599 0
DWIDTH 5 0
BBX 4 8 0 -1
VVECTOR 2 7
SWIDTH1 0 -853
DWIDTH1 0 -8
BITMAP 
10
10
20
20
40
40
80
80
ENDCHAR
STARTCHAR space
ENCODING 32
SWIDTH 599 0
DWIDTH 5 0
BBX 0 0 0 0
VVECTOR 0 0
SWIDTH1 0 0
DWIDTH1 0 0
BITMAP 
ENDCHAR
STARTCHAR sterling
ENCODING 163
SWIDTH 599 0
DWIDTH 5 0
BBX 6 7 0 0
VVECTOR 3 7
SWIDTH1 0 -747
DWIDTH1 0 -7
BITMAP 
38
40
F8
20
20
44
FC
ENDCHAR
STARTCHAR t
ENCODING 116
SWIDTH 599 0
DWIDTH 5 0
BBX 4 7 0 0
VVECTOR 2 7
SWIDTH1 0 -747
DWIDTH1 0 -7
BITMAP 
40
F0
40
40
40
40
30
ENDCHAR
STARTCHAR thorn
ENCODING 254
SWIDTH 599 0
DWIDTH 5 0
BBX 5 9 0 -2
VVECTOR 3 7
SWIDTH1 0 -960
DWIDTH1 0 -9
BITMAP 
C0
40
70
48
48
48
70
40
E0
ENDCHAR
STARTCHAR three
ENCODING 51
SWIDTH 599 0
DWIDTH 5 0
BBX 4 7 0 0
VVECTOR 2 7
SWIDTH1 0 -747
DWIDTH1 0 -7
BITMAP 
60
90
10
60
10
90
60
ENDCHAR
STARTCHAR threequarters
ENCODING 190
SWIDTH 599 0
DWIDTH 5 0
BBX 7 7 0 0
VVECTOR 4 7
SWIDTH1 0 -747
DWIDTH1 0 -7
BITMAP 
E0
44
28
D4
2C
5E
04
ENDCHAR
STARTCHAR threesuperior
ENCODING -1
SWIDTH 599 0
DWIDTH 5 0
BBX 3 4 1 3
VVECTOR 3 7
SWIDTH1 0 -427
DWIDTH1 0 -4
BITMAP 
E0
40
20
C0
ENDCHAR
STARTCHAR tilde
ENCODING -1
SWIDTH 599 0
DWIDTH 5 0
BBX 4 2 1 6
VVECTOR 3 8
SWIDTH1 0 -213
DWIDTH1 0 -2
BITMAP 
50
A0
ENDCHAR
STARTCHAR trademark
ENCODING -1
SWIDTH 599 0
DWIDTH 5 0
BBX 5 3 0 3
VVECTOR 3 6
SWIDTH1 0 -320
DWIDTH1 0 -3
BITMAP 
F8
58
58
ENDCHAR
STARTCHAR two
ENCODING 50
SWIDTH 599 0
DWIDTH 5 0
BBX 4 7 0 0
VVECTOR 2 7
SWIDTH1 0 -747
DWIDTH1 0 -7
BITMAP 
60
90
10
20
40
80
F0
ENDCHAR
STARTCHAR twosuperior
ENCODING -1
SWIDTH 599 0
DWIDTH 5 0
BBX 3 4 1 3
VVECTOR 3 7
SWIDTH1 0 -427
DWIDTH1 0 -4
BITMAP 
60
A0
40
E0
ENDCHAR
STARTCHAR u
ENCODING 117
SWIDTH 599 0
DWIDTH 5 0
BBX 4 6 0 0
VVECTOR 2 6
SWIDTH1 0 -640
DWIDTH1 0 -6
BITMAP 
90
90
90
90
90
70
ENDCHAR
STARTCHAR uacute
ENCODING 250
SWIDTH 599 0
DWIDTH 5 0
BBX 6 8 0 0
VVECTOR 3 8
SWIDTH1 0 -853
DWIDTH1 0 -8
BITMAP 
10
20
00
D8
48
48
48
34
ENDCHAR
STARTCHAR ucircumflex
ENCODING 251
SWIDTH 599 0
DWIDTH 5 0
BBX 6 8 0 0
VVECTOR 3 8
SWIDTH1 0 -853
DWIDTH1 0 -8
BITMAP 
20
50
00
D8
48
48
48
34
ENDCHAR
STARTCHAR udieresis
ENCODING 252
SWIDTH 599 0
DWIDTH 5 0
BBX 6 7 0 0
VVECTOR 3 7
SWIDTH1 0 -747
DWIDTH1 0 -7
BITMAP 
50
00
D8
48
48
48
34
ENDCHAR
STARTCHAR ugrave
ENCODING 249
SWIDTH 599 0
DWIDTH 5 0
BBX 6 8 0 0
VVECTOR 3 8
SWIDTH1 0 -853
DWIDTH1 0 -8
BITMAP 
20
10
00
D8
48
48
48
34
ENDCHAR
STARTCHAR underscore
ENCODING 95
SWIDTH 599 0
DWIDTH 5 0
BBX 5 1 0 -2
VVECTOR 3 -1
SWIDTH1 0 -107
DWIDTH1 0 -1
BITMAP 
F8
ENDCHAR
STARTCHAR v
ENCODING 118
SWIDTH 599 0
DWIDTH 5 0
BBX 4 6 0 0
VVECTOR 2 6
SWIDTH1 0 -640
DWIDTH1 0 -6
BITMAP 
90
90
A0
A0
40
40
ENDCHAR
STARTCHAR w
ENCODING 119
SWIDTH 599 0
DWIDTH 5 0
BBX 4 6 0 0
VVECTOR 2 6
SWIDTH1 0 -640
DWIDTH1 0 -6
BITMAP 
90
90
90
F0
F0
90
ENDCHAR
STARTCHAR x
ENCODING 120
SWIDTH 599 0
DWIDTH 5 0
BBX 4 6 0 0
VVECTOR 2 6
SWIDTH1 0 -640
DWIDTH1 0 -6
BITMAP 
90
90
60
90
90
90
ENDCHAR
STARTCHAR y
ENCODING 121
SWIDTH 599 0
DWIDTH 5 0
BBX 4 8 0 -2
VVECTOR 2 6
SWIDTH1 0 -853
DWIDTH1 0 -8
BITMAP 
90
90
90
90
90
60
40
80
ENDCHAR
STARTCHAR yacute
ENCODING 253
SWIDTH 599 0
DWIDTH 5 0
BBX 5 10 0 -2
VVECTOR 3 8
SWIDTH1 0 -1067
DWIDTH1 0 -10
BITMAP 
10
20
00
D8
48
48
48
30
20
C0
ENDCHAR
STARTCHAR ydieresis
ENCODING 255
SWIDTH 599 0
DWIDTH 5 0
BBX 5 9 0 -2
VVECTOR 3 7
SWIDTH1 0 -960
DWIDTH1 0 -9
BITMAP 
50
00
D8
48
48
48
30
20
C0
ENDCHAR
STARTCHAR yen
ENCODING 165
SWIDTH 599 0
DWIDTH 5 0
BBX 5 7 0 0
VVECTOR 3 7
SWIDTH1 0 -747
DWIDTH1 0 -7
BITMAP 
88
50
F8
20
F8
20
70
ENDCHAR
STARTCHAR z
ENCODING 122
SWIDTH 599 0
DWIDTH 5 0
BBX 4 6 0 0
VVECTOR 2 6
SWIDTH1 0 -640
DWIDTH1 0 -6
BITMAP 
F0
10
20
40
80
F0
ENDCHAR
STARTCHAR zcaron
ENCODING -1
SWIDTH 599 0
DWIDTH 5 0
BBX 4 8 1 0
VVECTOR 3 8
SWIDTH1 0 -853
DWIDTH1 0 -8
BITMAP 
A0
40
00
F0
20
40
90
F0
ENDCHAR
STARTCHAR zero
ENCODING 48
SWIDTH 599 0
DWIDTH 5 0
BBX 4 7 0 0
VVECTOR 2 7
SWIDTH1 0 -747
DWIDTH1 0 -7
BITMAP 
60
90
90
90
90
90
60
ENDCHAR
ENDFONT
